<svg id="Capa_1" enable-background="new 0 0 512 512" height="512" viewBox="0 0 512 512" width="512" xmlns="http://www.w3.org/2000/svg"><g><path d="m64.635 147.122h16.516v66.065h-16.516z" fill="#ffd064" transform="matrix(.383 -.924 .924 .383 -121.443 178.557)"/><circle cx="34.746" cy="164.353" fill="#ffe07d" r="16.516"/><path d="m430.849 298.813h16.516v66.065h-16.516z" fill="#ffd064" transform="matrix(-.383 .924 -.924 -.383 913.731 53.155)"/><circle cx="477.254" cy="347.647" fill="#ffe07d" r="16.516"/><path d="m171.897 406.075h16.516v66.065h-16.516z" fill="#ffd064" transform="matrix(-.924 -.383 .383 -.924 178.557 913.731)"/><circle cx="164.353" cy="477.254" fill="#ffe07d" r="16.516"/><path d="m323.587 39.861h16.516v66.065h-16.516z" fill="#ffd064" transform="matrix(.924 .383 -.383 .924 53.155 -121.443)"/><circle cx="347.647" cy="34.746" fill="#ffe07d" r="16.516"/><path d="m64.635 298.813h16.516v66.065h-16.516z" fill="#ffd064" transform="matrix(-.383 -.924 .924 -.383 -205.797 526.182)"/><circle cx="34.746" cy="347.647" fill="#ffe07d" r="16.516"/><path d="m430.849 147.122h16.516v66.065h-16.516z" fill="#ffd064" transform="matrix(.383 .924 -.924 .383 437.509 -294.47)"/><circle cx="477.254" cy="164.353" fill="#ffe07d" r="16.516"/><path d="m323.587 406.075h16.516v66.065h-16.516z" fill="#ffd064" transform="matrix(-.924 .383 -.383 -.924 806.47 717.797)"/><circle cx="347.647" cy="477.254" fill="#ffe07d" r="16.516"/><path d="m171.897 39.861h16.516v66.065h-16.516z" fill="#ffd064" transform="matrix(.924 -.383 .383 .924 -14.182 74.491)"/><circle cx="164.353" cy="34.746" fill="#ffe07d" r="16.516"/><path d="m107.598 82.824h16.516v66.065h-16.516z" fill="#ffd064" transform="matrix(.707 -.707 .707 .707 -47.989 115.856)"/><circle cx="86.659" cy="86.659" fill="#ffe07d" r="16.516"/><path d="m387.886 363.112h16.516v66.065h-16.516z" fill="#ffd064" transform="matrix(-.707 .707 -.707 -.707 956.376 396.144)"/><circle cx="425.341" cy="425.341" fill="#ffe07d" r="16.516"/><path d="m107.598 363.112h16.516v66.065h-16.516z" fill="#ffd064" transform="matrix(-.707 -.707 .707 -.707 -82.338 758.183)"/><circle cx="86.659" cy="425.341" fill="#ffe07d" r="16.516"/><path d="m387.886 82.824h16.516v66.065h-16.516z" fill="#ffd064" transform="matrix(.707 .707 -.707 .707 197.951 -246.183)"/><circle cx="425.341" cy="86.659" fill="#ffe07d" r="16.516"/><path d="m49.548 222.968h16.516v66.065h-16.516z" fill="#ffd064" transform="matrix(0 -1 1 0 -198.194 313.807)"/><circle cx="16.516" cy="256" fill="#ffe07d" r="16.516"/><path d="m445.935 222.968h16.516v66.065h-16.516z" fill="#ffd064" transform="matrix(0 1 -1 0 710.194 -198.194)"/><circle cx="495.484" cy="256" fill="#ffe07d" r="16.516"/><path d="m247.742 421.161h16.516v66.065h-16.516z" fill="#ffd064" transform="matrix(-1 0 0 -1 512 908.387)"/><circle cx="256" cy="495.484" fill="#ffe07d" r="16.516"/><path d="m247.742 24.774h16.516v66.065h-16.516z" fill="#ffd064"/><circle cx="256" cy="16.516" fill="#ffe07d" r="16.516"/><circle cx="256" cy="256" fill="#ff8086" r="173.419"/><path d="m386.5 256c0-77.534-52.966-118.5-130.5-118.5-45.845 0-86.557.088-112.178 34.079-17.71 23.496-28.209 52.732-28.209 84.421 0 77.534 62.853 140.387 140.387 140.387 31.669 0 60.889-10.486 84.377-28.176 34.016-25.619 46.123-66.346 46.123-112.211z" fill="#db4655"/><path d="m256 115.613c-46.146 0-87.112 22.216-112.702 56.589 23.38-17.406 52.41-27.685 83.798-27.685 77.534 0 140.387 62.853 140.387 140.387 0 31.388-10.321 60.377-27.727 83.757 34.372-25.589 56.63-66.514 56.63-112.66.001-77.535-62.852-140.388-140.386-140.388z" fill="#bd4150"/><path d="m228.605 126.569c-3.863 0-7.306-2.718-8.089-6.645l-11.282-56.698c-.895-4.476 2.008-8.823 6.484-9.714 4.508-.867 8.823 2.016 9.71 6.488l11.282 56.698c.895 4.476-2.008 8.823-6.484 9.714-.549.104-1.089.157-1.621.157z" fill="#c3ddff"/><path d="m294.661 458.645c-3.863 0-7.306-2.718-8.089-6.645l-11.282-56.698c-.895-4.476 2.008-8.823 6.484-9.714 4.508-.875 8.823 2.02 9.71 6.488l11.282 56.698c.895 4.476-2.008 8.823-6.484 9.714-.548.105-1.088.157-1.621.157z" fill="#c3ddff"/><g><path d="m393.685 236.871c-3.863 0-7.306-2.718-8.089-6.645-.895-4.476 2.016-8.823 6.484-9.714l56.694-11.278c4.524-.859 8.815 2.016 9.71 6.488.895 4.476-2.016 8.823-6.484 9.714l-56.694 11.278c-.548.105-1.088.157-1.621.157z" fill="#c3ddff"/></g><g><path d="m61.605 302.923c-3.863 0-7.306-2.718-8.089-6.645-.895-4.476 2.016-8.823 6.484-9.714l56.694-11.278c4.508-.887 8.823 2.016 9.71 6.488.895 4.476-2.016 8.823-6.484 9.714l-56.694 11.278c-.549.105-1.089.157-1.621.157z" fill="#c3ddff"/></g><g><path d="m333.984 147.532c-1.581 0-3.169-.452-4.581-1.391-3.79-2.536-4.815-7.665-2.274-11.456l32.121-48.065c2.532-3.794 7.661-4.798 11.452-2.278 3.79 2.536 4.815 7.665 2.274 11.456l-32.121 48.065c-1.589 2.383-4.202 3.669-6.871 3.669z" fill="#c3ddff"/></g><g><path d="m145.879 429.048c-1.581 0-3.169-.452-4.581-1.391-3.79-2.536-4.815-7.665-2.274-11.456l32.121-48.065c2.54-3.79 7.661-4.794 11.452-2.278 3.79 2.536 4.815 7.665 2.274 11.456l-32.121 48.065c-1.589 2.383-4.202 3.669-6.871 3.669z" fill="#c3ddff"/></g><g><g><path d="m420.782 374.367c-1.573 0-3.169-.452-4.581-1.391l-48.065-32.113c-3.79-2.532-4.815-7.661-2.274-11.456 2.516-3.79 7.637-4.819 11.452-2.278l48.065 32.113c3.79 2.532 4.815 7.661 2.274 11.456-1.588 2.383-4.201 3.669-6.871 3.669z" fill="#c3ddff"/></g><g><path d="m139.266 186.262c-1.573 0-3.169-.452-4.581-1.391l-48.065-32.113c-3.79-2.532-4.815-7.661-2.274-11.456 2.516-3.79 7.645-4.819 11.452-2.278l48.065 32.113c3.79 2.532 4.815 7.661 2.274 11.456-1.589 2.383-4.202 3.669-6.871 3.669z" fill="#c3ddff"/></g></g><g><path d="m178.016 147.532c-2.669 0-5.282-1.286-6.871-3.669l-32.121-48.065c-2.54-3.79-1.516-8.919 2.274-11.456 3.806-2.536 8.927-1.516 11.452 2.278l32.121 48.065c2.54 3.79 1.516 8.919-2.274 11.456-1.412.94-3.008 1.391-4.581 1.391z" fill="#c3ddff"/></g><g><path d="m366.121 429.048c-2.669 0-5.282-1.286-6.871-3.669l-32.121-48.065c-2.54-3.79-1.516-8.919 2.274-11.456 3.798-2.54 8.927-1.512 11.452 2.278l32.121 48.065c2.54 3.79 1.516 8.919-2.274 11.456-1.412.94-3.008 1.391-4.581 1.391z" fill="#c3ddff"/></g><g><g><path d="m372.734 186.262c-2.669 0-5.282-1.286-6.871-3.669-2.54-3.794-1.516-8.923 2.274-11.456l48.065-32.113c3.798-2.54 8.927-1.512 11.452 2.278 2.54 3.794 1.516 8.923-2.274 11.456l-48.065 32.113c-1.412.939-3.009 1.391-4.581 1.391z" fill="#c3ddff"/></g><g><path d="m91.218 374.367c-2.669 0-5.282-1.286-6.871-3.669-2.54-3.794-1.516-8.923 2.274-11.456l48.065-32.113c3.806-2.54 8.927-1.512 11.452 2.278 2.54 3.794 1.516 8.923-2.274 11.456l-48.065 32.113c-1.412.939-3.009 1.391-4.581 1.391z" fill="#c3ddff"/></g></g><g><g><path d="m283.395 126.569c-.532 0-1.073-.052-1.621-.157-4.476-.891-7.379-5.238-6.484-9.714l11.283-56.698c.887-4.472 5.177-7.347 9.71-6.488 4.476.891 7.379 5.238 6.484 9.714l-11.282 56.698c-.783 3.927-4.227 6.645-8.09 6.645z" fill="#c3ddff"/></g><g><path d="m217.339 458.645c-.532 0-1.073-.052-1.621-.157-4.476-.891-7.379-5.238-6.484-9.714l11.282-56.698c.887-4.468 5.177-7.355 9.71-6.488 4.476.891 7.379 5.238 6.484 9.714l-11.283 56.698c-.782 3.927-4.225 6.645-8.088 6.645z" fill="#c3ddff"/></g><g><g><path d="m450.395 302.923c-.532 0-1.073-.052-1.621-.157l-56.694-11.278c-4.468-.891-7.379-5.238-6.484-9.714.887-4.468 5.177-7.367 9.71-6.488l56.694 11.279c4.468.891 7.379 5.238 6.484 9.714-.782 3.927-4.226 6.644-8.089 6.644z" fill="#c3ddff"/></g><g><path d="m118.315 236.871c-.532 0-1.073-.052-1.621-.157l-56.694-11.279c-4.468-.891-7.379-5.238-6.484-9.714.887-4.468 5.194-7.339 9.71-6.488l56.694 11.278c4.468.891 7.379 5.238 6.484 9.714-.783 3.928-4.227 6.646-8.089 6.646z" fill="#c3ddff"/></g></g></g><path d="m282.976 368.109c-8.363 0-13.129-10.802-20.54-27.597-1.766-3.996-4.258-9.641-6.435-13.903-2.169 4.258-4.661 9.903-6.427 13.899-3.202 7.254-6.226 14.109-9.169 18.907-2.379 3.887-7.468 5.121-11.355 2.726-3.887-2.383-5.113-7.468-2.726-11.355 2.363-3.855 5.298-10.512 8.137-16.948 7.79-17.641 12.492-28.29 21.54-28.29 8.444 0 13.105 9.274 20.024 24.855-1.871-17.48-2.516-27.274 4.742-31.468 7.25-4.21 15.96 1.577 29.863 11.685-10.113-13.887-15.911-22.573-11.685-29.871 4.194-7.242 13.952-6.609 31.452-4.734-15.573-6.911-24.847-11.573-24.847-20.016 0-8.448 9.274-13.105 24.855-20.02-17.476 1.875-27.266 2.52-31.468-4.73-4.218-7.306 1.573-15.988 11.677-29.871-13.879 10.109-22.573 15.895-29.863 11.685-7.25-4.198-6.605-13.988-4.734-31.456-6.911 15.573-11.573 24.843-20.016 24.843s-13.105-9.274-20.024-24.855c1.871 17.48 2.516 27.274-4.742 31.468-7.242 4.214-15.96-1.569-29.863-11.685 10.113 13.887 15.911 22.573 11.685 29.871-4.185 7.242-13.952 6.609-31.452 4.734 15.573 6.911 24.847 11.573 24.847 20.016 0 8.448-9.274 13.105-24.855 20.02 17.492-1.867 27.266-2.52 31.468 4.73 4.218 7.306-1.573 15.988-11.677 29.867 6.96-5.06 13.444-9.625 18.435-11.681 4.226-1.73 9.048.274 10.782 4.492s-.274 9.044-4.492 10.782c-3.758 1.544-11.081 6.891-17.54 11.609-16.097 11.758-26.726 19.532-34.323 11.935-7.581-7.589.185-18.222 11.935-34.323 2.468-3.375 5.919-8.105 8.46-11.992-4.46.262-10.032.867-14.331 1.331-20.016 2.165-33.218 3.601-36.008-6.859-2.75-10.266 8.516-15.238 27.177-23.48 4-1.762 9.645-4.258 13.911-6.431-4.266-2.173-9.911-4.669-13.911-6.431-18.661-8.242-29.927-13.214-27.177-23.48 2.798-10.46 16.024-9.032 36.008-6.855 4.298.464 9.871 1.069 14.331 1.331-2.548-3.887-6-8.613-8.468-11.992-11.75-16.101-19.516-26.734-11.927-34.323 7.589-7.585 18.226.181 34.323 11.94 3.379 2.464 8.105 5.911 11.992 8.456-.266-4.464-.871-10.044-1.339-14.339-2.161-20-3.597-33.21 6.855-36.004 10.242-2.766 15.242 8.512 23.484 27.185 1.766 4 4.258 9.645 6.435 13.907 2.177-4.266 4.669-9.915 6.435-13.915 8.242-18.665 13.202-29.964 23.476-27.177 10.452 2.794 9.024 16.008 6.855 36.012-.468 4.294-1.073 9.871-1.331 14.331 3.887-2.544 8.613-5.996 11.992-8.464 16.089-11.75 26.726-19.532 34.323-11.94 7.581 7.593-.185 18.226-11.935 34.327-2.468 3.375-5.919 8.105-8.46 11.992 4.46-.262 10.032-.867 14.331-1.331 20.024-2.165 33.218-3.597 36.008 6.859 2.75 10.266-8.516 15.238-27.177 23.48-4 1.762-9.645 4.258-13.911 6.431 4.266 2.173 9.911 4.669 13.911 6.431 18.661 8.242 29.927 13.214 27.177 23.48-2.798 10.46-16.024 9.028-36.008 6.855-4.298-.464-9.871-1.069-14.331-1.331 2.548 3.887 6 8.613 8.468 11.992 11.75 16.101 19.516 26.734 11.927 34.323-7.597 7.581-18.226-.185-34.323-11.94-3.379-2.464-8.105-5.911-11.992-8.456.266 4.464.871 10.044 1.339 14.339 2.161 20 3.597 33.21-6.855 36.004-1.032.28-2.008.413-2.943.413z" fill="#ffaae1"/></g></svg>